<svg width="228" height="70" viewBox="0 0 228 70" fill="none" xmlns="http://www.w3.org/2000/svg">
<path d="M94.0505 19.8563C92.9249 19.8563 91.8977 20.0061 90.9691 20.3058C90.0686 20.5816 89.2792 21.0459 88.601 21.6988C87.9495 22.3249 87.4233 23.1396 87.0223 24.1429C86.6466 25.1447 86.4335 26.3407 86.3828 27.7308C86.304 29.9863 86.304 32.2418 86.3828 34.4973C86.4335 35.9002 86.6466 37.0961 87.0223 38.0853C87.4233 39.0871 87.9495 39.9145 88.601 40.5673C89.2764 41.1935 90.0658 41.6578 90.9691 41.9603C91.8977 42.2361 92.9249 42.374 94.0505 42.374C95.1565 42.374 96.1836 42.2241 97.1319 41.9244C98.0803 41.598 98.895 41.1238 99.576 40.5019C100.28 39.8504 100.832 39.0231 101.235 38.0199C101.636 37.0181 101.836 35.8404 101.836 34.4868V32.5704H95.2873C94.7357 32.5704 94.46 32.289 94.46 31.7261V31.1985C94.46 30.6357 94.7357 30.3543 95.2873 30.3543H103.329C103.891 30.3543 104.173 30.6357 104.173 31.1985V34.5058C104.173 36.0113 103.948 37.3902 103.497 38.6425C103.047 39.8708 102.383 40.9374 101.505 41.8421C100.654 42.7426 99.5872 43.444 98.3054 43.9464C97.0391 44.4219 95.6109 44.6597 94.021 44.6597C92.3916 44.6597 90.9634 44.4219 89.7365 43.9464C88.5082 43.4455 87.4683 42.756 86.6171 41.878C85.7897 41.0014 85.1509 39.9616 84.7007 38.7586C84.2743 37.5302 84.0365 36.1766 83.9873 34.6978C83.9366 33.5722 83.9113 32.3818 83.9113 31.1267C83.9113 29.8604 83.9366 28.67 83.9873 27.5557C84.038 26.0783 84.2884 24.7373 84.7387 23.5329C85.1889 22.3045 85.8277 21.2521 86.6551 20.3755C87.5063 19.4989 88.5461 18.8221 89.7745 18.3451C91.0028 17.8442 92.4183 17.5938 94.021 17.5938C95.7516 17.5938 97.2304 17.8569 98.4574 18.3831C99.6857 18.9093 100.688 19.5425 101.465 20.2826C102.242 21.0101 102.819 21.7748 103.196 22.5768C103.571 23.3788 103.772 24.043 103.797 24.5692C103.822 24.7943 103.759 24.9822 103.607 25.1327C103.457 25.2594 103.256 25.3227 103.006 25.3227H102.178C101.953 25.3227 101.79 25.2734 101.689 25.1749C101.59 25.0483 101.49 24.8478 101.389 24.5734C101.189 24.0106 100.908 23.4478 100.545 22.885C100.193 22.3221 99.7188 21.8212 99.1222 21.3822C98.5214 20.932 97.8073 20.5682 96.98 20.2911C96.1526 20.0153 95.1747 19.8774 94.0463 19.8774L94.0505 19.8563ZM111.796 27.334C112.697 25.6034 114.401 24.738 116.908 24.738H118.301C118.853 24.738 119.128 25.0138 119.128 25.5654V26.093C119.128 26.6446 118.853 26.9204 118.301 26.9204H116.684C115.179 26.9204 113.988 27.3587 113.113 28.2353C112.237 29.1118 111.798 30.3022 111.798 31.8063V43.4567C111.798 43.7072 111.71 43.9077 111.534 44.0582C111.384 44.2088 111.183 44.2841 110.933 44.2841H110.331C109.78 44.2841 109.504 44.0083 109.504 43.4567V25.6013C109.504 25.3508 109.579 25.1503 109.73 24.9998C109.881 24.8239 110.081 24.7359 110.331 24.7359H110.933C111.183 24.7359 111.384 24.8239 111.534 24.9998C111.71 25.1503 111.798 25.3508 111.798 25.6013V27.3319L111.796 27.334ZM135.013 44.2946C134.461 44.2946 134.185 44.0188 134.185 43.4673V41.7007C133.96 42.0525 133.66 42.4042 133.284 42.756C132.932 43.1078 132.494 43.4208 131.969 43.6952C131.443 43.971 130.81 44.1961 130.07 44.3706C129.342 44.5704 128.491 44.6703 127.516 44.6703C126.615 44.6703 125.75 44.5324 124.92 44.2566C124.118 43.9569 123.404 43.5559 122.778 43.0536C122.177 42.5527 121.688 41.9638 121.313 41.287C120.961 40.6117 120.785 39.873 120.785 39.0709C120.785 38.2197 120.961 37.4549 121.313 36.7767C121.688 36.1014 122.202 35.5125 122.853 35.0102C123.505 34.484 124.282 34.0583 125.184 33.7333C126.112 33.3815 127.127 33.1311 128.229 32.9819L134.168 32.1546V30.8397C134.168 29.4861 133.755 28.4337 132.927 27.6823C132.125 26.9309 130.835 26.5552 129.056 26.5552C127.654 26.5552 126.563 26.831 125.785 27.3826C125.034 27.9088 124.56 28.4857 124.363 29.1133C124.264 29.413 124.139 29.6261 123.987 29.7528C123.86 29.8513 123.684 29.9005 123.459 29.9005H122.932C122.706 29.9005 122.506 29.8252 122.33 29.6747C122.18 29.4988 122.104 29.2983 122.104 29.0732C122.104 28.7214 122.229 28.2831 122.48 27.7583C122.73 27.232 123.131 26.7185 123.683 26.2176C124.246 25.7166 124.973 25.291 125.863 24.9407C126.74 24.565 127.806 24.3771 129.063 24.3771C130.54 24.3771 131.756 24.5776 132.71 24.9786C133.686 25.3797 134.451 25.9059 135.004 26.5574C135.556 27.1835 135.931 27.8849 136.131 28.6616C136.356 29.4383 136.469 30.203 136.469 30.9558V43.4715C136.469 44.023 136.193 44.2988 135.641 44.2988H135.002L135.013 44.2946ZM127.908 42.4901C128.76 42.4901 129.562 42.3522 130.314 42.0764C131.091 41.7767 131.768 41.3384 132.345 40.7615C132.908 40.1987 133.358 39.4719 133.696 38.5813C134.022 37.7047 134.185 36.6775 134.185 35.4998V34.2229L129.337 34.8983C125.178 35.4611 123.098 36.7894 123.098 38.8831C123.098 39.5092 123.236 40.0481 123.512 40.4998C123.812 40.9501 124.187 41.3257 124.639 41.6268C125.089 41.9265 125.603 42.1517 126.18 42.3022C126.743 42.4289 127.319 42.4922 127.91 42.4922L127.908 42.4901ZM151.032 44.6703C149.453 44.6703 148.163 44.3889 147.161 43.8261C146.159 43.2632 145.344 42.5618 144.717 41.7218V50.6284C144.717 51.18 144.441 51.4558 143.89 51.4558H143.25C142.699 51.4558 142.423 51.18 142.423 50.6284V25.5654C142.423 25.0138 142.699 24.738 143.25 24.738H143.89C144.441 24.738 144.717 25.0138 144.717 25.5654V27.3319C145.343 26.4807 146.158 25.7793 147.161 25.2277C148.163 24.6649 149.453 24.3835 151.032 24.3835C152.485 24.3835 153.713 24.6466 154.715 25.1728C155.742 25.6737 156.569 26.3505 157.197 27.2032C157.823 28.0305 158.273 28.9831 158.548 30.0609C158.847 31.1134 159.023 32.1912 159.075 33.2943C159.1 33.67 159.113 34.0837 159.113 34.5353C159.113 34.9856 159.1 35.3992 159.075 35.7763C159.024 36.8823 158.849 37.9727 158.548 39.0477C158.272 40.1002 157.821 41.0528 157.197 41.9054C156.571 42.7328 155.743 43.4096 154.715 43.9358C153.713 44.4367 152.485 44.6872 151.032 44.6872V44.6703ZM144.717 33.1677C144.692 33.5433 144.679 34.0316 144.679 34.6324C144.679 35.2332 144.692 35.7215 144.717 36.0971C144.742 36.8485 144.867 37.6132 145.093 38.3913C145.343 39.1427 145.719 39.8195 146.22 40.4217C146.721 41.0225 147.354 41.5234 148.119 41.9244C148.871 42.3001 149.772 42.488 150.825 42.488C151.931 42.488 152.845 42.3001 153.569 41.9244C154.32 41.5487 154.922 41.0478 155.373 40.4217C155.849 39.7702 156.186 39.0315 156.386 38.2056C156.611 37.3543 156.749 36.477 156.8 35.5737C156.825 34.8702 156.825 34.1688 156.8 33.4695C156.749 32.569 156.611 31.7036 156.386 30.8735C156.186 30.0461 155.849 29.3194 155.373 28.6933C154.923 28.0418 154.321 27.5282 153.569 27.1525C152.841 26.7515 151.927 26.551 150.825 26.551C149.747 26.551 148.833 26.7515 148.081 27.1525C147.33 27.5535 146.697 28.0798 146.182 28.7312C145.706 29.3574 145.342 30.0588 145.09 30.8355C144.865 31.6122 144.74 32.3889 144.715 33.1656L144.717 33.1677ZM166.525 27.334C167.201 26.4575 168.016 25.7434 168.97 25.1918C169.918 24.6402 171.208 24.3645 172.84 24.3645C174.118 24.3645 175.233 24.5776 176.186 25.004C177.134 25.4303 177.923 26.0192 178.554 26.7705C179.205 27.5219 179.693 28.4118 180.018 29.4404C180.345 30.4675 180.508 31.5826 180.508 32.7857V43.4609C180.508 44.0125 180.232 44.2883 179.681 44.2883H179.047C178.496 44.2883 178.22 44.0125 178.22 43.4609V32.9714C178.22 30.9663 177.732 29.4003 176.755 28.2732C175.779 27.1195 174.351 26.5426 172.471 26.5426C170.667 26.5426 169.226 27.1054 168.148 28.231C167.071 29.3567 166.532 30.9375 166.532 32.9735V43.463C166.532 44.0146 166.256 44.2904 165.704 44.2904H165.065C164.513 44.2904 164.238 44.0146 164.238 43.463V18.4211C164.238 17.8695 164.513 17.5938 165.065 17.5938H165.704C166.256 17.5938 166.532 17.8695 166.532 18.4211V27.3277L166.525 27.334ZM195.841 17.6001C197.295 17.6001 198.623 17.8132 199.826 18.2396C201.029 18.6659 202.056 19.3174 202.908 20.194C203.784 21.0452 204.461 22.123 204.938 23.4274C205.439 24.705 205.715 26.2211 205.765 27.9757C205.816 29.1013 205.841 30.1538 205.841 31.1331C205.841 32.1096 205.816 33.162 205.765 34.2905C205.639 37.8742 204.724 40.5054 203.021 42.184L205.428 45.5673C205.453 45.6179 205.478 45.6672 205.504 45.715C205.529 45.7657 205.542 45.8536 205.542 45.9788C205.542 46.1786 205.466 46.3545 205.316 46.5065C205.165 46.657 204.989 46.7323 204.788 46.7323H203.961C203.685 46.7323 203.447 46.6198 203.247 46.3946C203.048 46.1948 202.884 46.0189 202.758 45.867L201.099 43.5728C199.593 44.3002 197.839 44.6639 195.835 44.6639C192.703 44.6639 190.285 43.8246 188.581 42.146C186.902 40.4674 186.012 37.8489 185.911 34.2905C185.86 33.1648 185.835 32.1124 185.835 31.1331C185.835 30.1566 185.86 29.1041 185.911 27.9757C185.962 26.2211 186.225 24.705 186.7 23.4274C187.201 22.1244 187.878 21.0466 188.731 20.194C189.607 19.3174 190.635 18.6659 191.812 18.2396C193.015 17.8132 194.356 17.6001 195.835 17.6001H195.841ZM195.841 19.8584C194.789 19.8584 193.811 20.0216 192.908 20.348C192.007 20.6477 191.218 21.136 190.54 21.8128C189.864 22.4882 189.325 23.3535 188.923 24.4088C188.547 25.4613 188.334 26.7135 188.283 28.1656C188.258 28.7284 188.233 29.2547 188.207 29.7443C188.207 30.2199 188.207 30.6842 188.207 31.1373C188.207 31.5875 188.207 32.0617 188.207 32.5598C188.233 33.0354 188.258 33.549 188.283 34.1005C188.334 35.5779 188.547 36.8443 188.923 37.8996C189.324 38.9267 189.85 39.778 190.502 40.4534C191.177 41.1287 191.966 41.6297 192.87 41.9561C193.77 42.2558 194.758 42.4056 195.833 42.4056C196.911 42.4056 197.898 42.2558 198.796 41.9561C199.697 41.6297 200.473 41.1287 201.126 40.4534C201.802 39.778 202.328 38.9267 202.705 37.8996C203.106 36.8471 203.331 35.5808 203.38 34.1005C203.406 33.549 203.418 33.0354 203.418 32.5598C203.418 32.0589 203.418 31.5847 203.418 31.1373C203.418 30.687 203.418 30.2227 203.418 29.7443C203.418 29.2687 203.406 28.7425 203.38 28.1656C203.33 26.7121 203.105 25.4599 202.705 24.4088C202.329 23.3563 201.803 22.491 201.126 21.8128C200.451 21.1374 199.661 20.6492 198.758 20.348C197.858 20.0216 196.88 19.8584 195.824 19.8584H195.841ZM214.189 42.0321H227.156C227.719 42.0321 228 42.3135 228 42.8763V43.4398C228 43.9914 227.719 44.2672 227.156 44.2672H212.648C212.096 44.2672 211.82 43.9914 211.82 43.4398V18.801C211.82 18.2494 212.096 17.9737 212.648 17.9737H213.361C213.913 17.9737 214.189 18.2494 214.189 18.801V42.0321Z" fill="#D2D3D5"/>
<path d="M12.4771 47.2431H68.9475V50.1705H12.4771V47.2431Z" fill="#E535AB"/>
<path d="M41.8413 65.1956L13.5934 48.8872L15.0581 46.3545L43.3039 62.6587L41.8413 65.1956ZM66.3788 22.6886L38.133 6.38236L39.5978 3.84967L67.8435 20.1581L66.3788 22.6886Z" fill="#E535AB"/>
<path d="M15.0647 22.6802L13.5999 20.1475L41.8689 3.85809L43.3337 6.39078L15.0647 22.6802Z" fill="#E535AB"/>
<path d="M14.1187 50.6376L42.3503 1.73237L44.8852 3.19337L16.6525 52.0968L14.1187 50.6376Z" fill="#E535AB"/>
<path d="M14.1187 50.6376L42.3503 1.73237L44.8852 3.19337L16.6525 52.0968L14.1187 50.6376Z" fill="#E535AB"/>
<path d="M65.8575 52.6124L37.6202 3.7104L40.1529 2.24567L68.3881 51.1476L65.8575 52.6124ZM14.7162 18.2058H17.6394V50.8226H14.7162V18.2058ZM63.7997 18.2058H66.7271V50.8226H63.7976L63.7997 18.2058Z" fill="#E535AB"/>
<path d="M65.8575 52.6124L37.6202 3.7104L40.1529 2.24567L68.3881 51.1476L65.8575 52.6124ZM14.7162 18.2058H17.6394V50.8226H14.7162V18.2058ZM63.7997 18.2058H66.7271V50.8226H63.7976L63.7997 18.2058Z" fill="#E535AB"/>
<path d="M41.3411 63.9567L40.0621 61.7406L64.6292 47.5576L65.9082 49.7737L41.3411 63.9567Z" fill="#E535AB"/>
<path d="M70.6063 51.7745C69.7892 53.1879 68.4446 54.2193 66.8677 54.6423C65.2908 55.0653 63.6105 54.8453 62.1957 54.0307C60.7823 53.2135 59.7508 51.8689 59.3278 50.292C58.9048 48.7152 59.1248 47.0349 59.9395 45.62C60.7566 44.2066 62.1012 43.1752 63.6781 42.7522C65.255 42.3292 66.9353 42.5492 68.3501 43.3638C71.3134 45.0523 72.3159 48.8513 70.6063 51.7745ZM21.4891 23.4084C20.6719 24.8218 19.3273 25.8532 17.7504 26.2762C16.1736 26.6992 14.4933 26.4792 13.0784 25.6646C11.665 24.8474 10.6336 23.5028 10.2106 21.9259C9.78758 20.3491 10.0076 18.6688 10.8222 17.2539C11.6394 15.8405 12.984 14.8091 14.5609 14.3861C16.1377 13.9631 17.818 14.1831 19.2329 14.9977C22.1771 16.6862 23.1796 20.4852 21.4912 23.4084M10.8412 51.7745C9.14855 48.8302 10.1532 45.0755 13.0995 43.3638C16.0438 41.6711 19.7985 42.6758 21.5102 45.6221C23.2029 48.5664 22.1982 52.3211 19.2519 54.0328C16.2886 55.7255 12.5339 54.7208 10.8412 51.7745ZM59.9606 23.4084C58.2679 20.4641 59.2725 16.7094 62.2189 14.9977C65.1631 13.305 68.9179 14.3097 70.6295 17.256C72.3222 20.2003 71.3176 23.955 68.3712 25.6667C66.9564 26.4813 65.2761 26.7013 63.6992 26.2783C62.1223 25.8553 60.7777 24.8218 59.9606 23.4084ZM40.7185 69.0411C37.3163 69.0411 34.5662 66.291 34.5662 62.8887C34.5662 59.4865 37.3226 56.7364 40.7185 56.7364C44.1144 56.7364 46.8708 59.4865 46.8708 62.8887C46.868 64.5196 46.2189 66.0828 45.0658 67.236C43.9126 68.3892 42.3493 69.0383 40.7185 69.0411ZM40.7185 12.3046C37.3163 12.3046 34.5662 9.55456 34.5662 6.15232C34.5662 2.75008 37.3226 0 40.7185 0C44.1144 0 46.8708 2.75008 46.8708 6.15232C46.8722 6.96064 46.714 7.76129 46.4053 8.50835C46.0966 9.25541 45.6435 9.93419 45.0719 10.5058C44.5004 11.0773 43.8216 11.5305 43.0745 11.8392C42.3275 12.1478 41.5268 12.306 40.7185 12.3046Z" fill="#E535AB"/>
</svg>
