<svg width="35" height="38" viewBox="0 0 35 38" fill="none" xmlns="http://www.w3.org/2000/svg">
<path d="M2.41498 28.0083L3.80261 28.8094L19.2614 2.03481L17.8738 1.23363L2.41498 28.0083Z" fill="#E535AB"/>
<path d="M33.0148 25.8692H2.09717V27.4716H33.0148V25.8692Z" fill="#E535AB"/>
<path d="M2.70887 26.7694L18.1735 35.6982L18.9746 34.3105L3.51004 25.3818L2.70887 26.7694Z" fill="#E535AB"/>
<path d="M16.1431 3.49877L31.6077 12.4275L32.4088 11.0399L16.9442 2.11114L16.1431 3.49877Z" fill="#E535AB"/>
<path d="M2.71323 11.0338L3.5144 12.4214L18.979 3.49267L18.1778 2.10504L2.71323 11.0338Z" fill="#E535AB"/>
<path d="M15.8637 2.03511L31.3225 28.8098L32.7101 28.0086L17.2513 1.23394L15.8637 2.03511Z" fill="#E535AB"/>
<path d="M4.92535 9.97125H3.323V27.8287H4.92535V9.97125Z" fill="#E535AB"/>
<path d="M31.7985 9.97125H30.1962V27.8287H31.7985V9.97125Z" fill="#E535AB"/>
<path d="M17.2009 33.8078L17.9008 35.0199L31.3508 27.2543L30.6509 26.0422L17.2009 33.8078Z" fill="#E535AB"/>
<path d="M33.9222 28.35C32.9955 29.962 30.9298 30.5122 29.3178 29.5855C27.7058 28.6589 27.1556 26.5932 28.0823 24.9812C29.0089 23.3692 31.0746 22.819 32.6866 23.7457C34.3083 24.682 34.8585 26.738 33.9222 28.35Z" fill="#E535AB"/>
<path d="M7.0297 12.8188C6.10304 14.4308 4.03736 14.981 2.42536 14.0543C0.813357 13.1277 0.263153 11.062 1.18981 9.44999C2.11647 7.83798 4.18215 7.28778 5.79415 8.21444C7.40615 9.15075 7.95636 11.2068 7.0297 12.8188Z" fill="#E535AB"/>
<path d="M1.19946 28.35C0.272797 26.738 0.823001 24.682 2.435 23.7457C4.047 22.819 6.10303 23.3692 7.03934 24.9812C7.966 26.5932 7.41579 28.6492 5.80379 29.5855C4.18214 30.5122 2.12612 29.962 1.19946 28.35Z" fill="#E535AB"/>
<path d="M28.0919 12.8188C27.1653 11.2068 27.7155 9.15075 29.3275 8.21444C30.9395 7.28778 32.9955 7.83798 33.9318 9.44999C34.8585 11.062 34.3082 13.118 32.6962 14.0543C31.0842 14.981 29.0186 14.4308 28.0919 12.8188Z" fill="#E535AB"/>
<path d="M17.5608 37.8C15.6978 37.8 14.192 36.2941 14.192 34.4312C14.192 32.5682 15.6978 31.0624 17.5608 31.0624C19.4238 31.0624 20.9296 32.5682 20.9296 34.4312C20.9296 36.2845 19.4238 37.8 17.5608 37.8Z" fill="#E535AB"/>
<path d="M17.5608 6.73759C15.6978 6.73759 14.192 5.23176 14.192 3.36879C14.192 1.50582 15.6978 0 17.5608 0C19.4238 0 20.9296 1.50582 20.9296 3.36879C20.9296 5.23176 19.4238 6.73759 17.5608 6.73759Z" fill="#E535AB"/>
</svg>
