<svg width="82" height="32" viewBox="0 0 82 32" fill="none" xmlns="http://www.w3.org/2000/svg">
<path d="M42.2022 10.3979L46.0578 10.138C46.1458 10.7955 46.307 11.2848 46.5709 11.6365C46.9961 12.187 47.5825 12.4622 48.3595 12.4622C48.9312 12.4622 49.3857 12.3246 49.6936 12.0341C49.9867 11.8047 50.1627 11.4377 50.1627 11.0555C50.1627 10.6885 50.0014 10.3368 49.7229 10.1074C49.4297 9.8322 48.7407 9.55693 47.6558 9.31229C45.8819 8.8994 44.6065 8.34893 43.8588 7.64558C43.1111 6.98804 42.686 6.02474 42.7153 5.00023C42.7153 4.29684 42.9205 3.59346 43.3017 3.01239C43.7415 2.35488 44.3426 1.83499 45.0609 1.54446C45.8379 1.19277 46.9228 1.00928 48.2862 1.00928C49.9574 1.00928 51.2329 1.33039 52.1125 1.9879C52.9922 2.63012 53.52 3.66991 53.681 5.09197L49.8695 5.32133C49.7669 4.70969 49.5616 4.26626 49.2244 3.97573C48.8873 3.6852 48.4474 3.54758 47.8757 3.54758C47.4066 3.54758 47.0547 3.65462 46.8202 3.8534C46.6003 4.03689 46.4536 4.31213 46.4683 4.61795C46.4683 4.84731 46.5856 5.06139 46.7615 5.19901C46.9521 5.3825 47.4066 5.55071 48.1249 5.7036C49.8988 6.10118 51.1596 6.49876 51.9366 6.9116C52.7135 7.32444 53.2706 7.82908 53.6079 8.42543C53.9594 9.03703 54.1357 9.74044 54.121 10.4591C54.121 11.3154 53.8863 12.1717 53.4174 12.8904C52.9334 13.6397 52.2591 14.2207 51.4674 14.5724C50.6318 14.9547 49.5763 15.1534 48.3155 15.1534C46.0872 15.1534 44.5478 14.71 43.6829 13.8079C42.8179 12.9057 42.3048 11.7741 42.2022 10.3979ZM1.28553 14.9241V1.25393H8.0439C9.28999 1.25393 10.2576 1.36097 10.9173 1.59033C11.5623 1.80441 12.1341 2.24785 12.5152 2.8442C12.9404 3.50171 13.1456 4.26626 13.131 5.06139C13.1749 6.40701 12.5152 7.69145 11.3864 8.36424C10.9466 8.62419 10.4628 8.8077 9.96438 8.8994C10.3309 9.00646 10.6974 9.18997 11.0199 9.40405C11.2691 9.61812 11.4744 9.86276 11.665 10.1227C11.8849 10.3827 12.0755 10.6732 12.2367 10.979L14.2012 14.9394H9.5979L7.42814 10.7344C7.1496 10.1992 6.91505 9.84745 6.69513 9.67925C6.40196 9.46518 6.05012 9.35817 5.69827 9.35817H5.34641V14.9088H1.28553V14.9241ZM5.34641 6.78928H7.06166C7.42814 6.75871 7.77999 6.69753 8.13183 6.60577C8.39575 6.55989 8.63029 6.40701 8.79159 6.17762C9.18737 5.62715 9.12875 4.84731 8.64497 4.37329C8.38106 4.14393 7.86797 4.0216 7.13497 4.0216H5.34641V6.78928ZM0.361938 26.637L4.21757 26.377C4.30554 27.0345 4.4668 27.5239 4.73068 27.8756C5.14117 28.426 5.74226 28.7165 6.51921 28.7165C7.09097 28.7165 7.54544 28.5789 7.85329 28.2884C8.14652 28.0438 8.32244 27.692 8.32244 27.3098C8.32244 26.9428 8.16115 26.5911 7.8826 26.3617C7.58943 26.0865 6.90037 25.8113 5.80089 25.5666C4.02699 25.1537 2.75155 24.6033 2.00388 23.8999C1.25621 23.2424 0.831065 22.2791 0.860386 21.2546C0.860386 20.5512 1.06563 19.8477 1.4468 19.2667C1.8866 18.6092 2.48767 18.0893 3.20602 17.7988C3.98301 17.4471 5.06787 17.2636 6.43127 17.2636C8.10252 17.2636 9.37798 17.5847 10.2576 18.2422C11.1372 18.8998 11.6503 19.9242 11.8115 21.3463L7.9999 21.5757C7.89729 20.964 7.69205 20.5206 7.35489 20.2301C7.03235 19.9395 6.57789 19.8019 6.00612 19.8172C5.537 19.8172 5.18515 19.9242 4.95059 20.1383C4.71602 20.3218 4.58408 20.597 4.59874 20.9029C4.59874 21.1322 4.71602 21.3463 4.89195 21.4839C5.08253 21.6674 5.537 21.8356 6.25535 21.9885C8.02922 22.3861 9.28999 22.7837 10.067 23.1965C10.844 23.6094 11.4011 24.114 11.7382 24.7103C12.0901 25.3219 12.266 26.0253 12.266 26.7287C12.266 27.585 12.0168 28.426 11.5623 29.1447C11.0785 29.894 10.4042 30.475 9.61253 30.8267C8.7769 31.209 7.72136 31.4078 6.46059 31.4078C4.23224 31.4078 2.69291 30.9643 1.82796 30.0622C0.96301 29.1447 0.47922 28.0132 0.361938 26.637Z" fill="white"/>
<path d="M19.8602 25.5667L23.4079 26.6829C23.2173 27.6157 22.8215 28.5025 22.2791 29.2824C21.7806 29.9705 21.1209 30.5057 20.3732 30.8574C19.6109 31.2091 18.6433 31.3926 17.4705 31.3926C16.0485 31.3926 14.8757 31.1785 13.9814 30.7503C13.0724 30.3222 12.2955 29.5577 11.6357 28.472C10.976 27.3863 10.6535 25.9948 10.6535 24.2976C10.6535 22.0345 11.2253 20.2913 12.3834 19.0833C13.5416 17.8753 15.1689 17.2637 17.2799 17.2637C18.9365 17.2637 20.2266 17.6154 21.1796 18.3035C22.1178 19.0068 22.8215 20.0772 23.2906 21.5146L19.7135 22.3403C19.6256 22.0192 19.4936 21.6981 19.3177 21.4228C19.0978 21.1018 18.8192 20.8571 18.4821 20.6736C18.1449 20.4901 17.7638 20.4137 17.3825 20.4137C16.459 20.4137 15.7553 20.7959 15.2715 21.5757C14.905 22.1415 14.7144 23.0437 14.7144 24.2669C14.7144 25.7808 14.9343 26.8206 15.3741 27.3863C15.8139 27.9521 16.4297 28.2273 17.236 28.2273C18.0129 28.2273 18.5994 27.9979 18.9952 27.5545C19.391 27.0805 19.6842 26.423 19.8602 25.5667ZM28.1431 17.4931H32.1894V22.2791H36.6168V17.4931H40.6923V31.1632H36.6168V25.6279H32.1894V31.1632H28.1431V17.4931Z" fill="white"/>
<path d="M40.135 24.328C40.135 22.0956 40.7361 20.3524 41.9236 19.1138C43.111 17.8752 44.7823 17.2483 46.908 17.2483C49.0924 17.2483 50.7637 17.8599 51.9511 19.0832C53.1385 20.3065 53.7252 22.0191 53.7252 24.221C53.7252 25.8266 53.461 27.1263 52.9481 28.1508C52.4496 29.16 51.6726 29.9857 50.7197 30.5361C49.7374 31.1019 48.5207 31.3924 47.0693 31.3924C45.5886 31.3924 44.3718 31.1478 43.4042 30.6585C42.4073 30.1386 41.5864 29.3282 41.0439 28.3343C40.4429 27.2639 40.135 25.9336 40.135 24.328ZM44.1812 24.3433C44.1812 25.7195 44.4304 26.7134 44.9143 27.3251C45.398 27.9214 46.0724 28.2272 46.9227 28.2272C47.7877 28.2272 48.462 27.9367 48.9458 27.3403C49.4296 26.744 49.6641 25.6889 49.6641 24.1599C49.6641 22.8754 49.4149 21.9274 48.9165 21.3463C48.418 20.7499 47.7437 20.4594 46.8934 20.4594C46.1457 20.4288 45.4273 20.7652 44.9289 21.3616C44.4305 21.9579 44.1812 22.9518 44.1812 24.3433ZM57.8736 24.328C57.8736 22.0956 58.4751 20.3524 59.6623 19.1138C60.85 17.8752 62.5214 17.2483 64.6469 17.2483C66.8313 17.2483 68.5174 17.8599 69.6899 19.0832C70.8629 20.3065 71.4639 22.0191 71.4639 24.221C71.4639 25.8266 71.2002 27.1263 70.6871 28.1508C70.1883 29.16 69.4115 29.9857 68.4585 30.5361C67.4765 31.1019 66.2593 31.3924 64.8079 31.3924C63.3276 31.3924 62.1109 31.1478 61.1432 30.6585C60.1465 30.1386 59.325 29.3282 58.783 28.3343C58.182 27.2639 57.8736 25.9336 57.8736 24.328ZM61.9199 24.3433C61.9199 25.7195 62.1693 26.7134 62.653 27.3251C63.1371 27.9214 63.8112 28.2272 64.6616 28.2272C65.5263 28.2272 66.2009 27.9367 66.6845 27.3403C67.1687 26.744 67.4028 25.6889 67.4028 24.1599C67.4028 22.8754 67.1539 21.9274 66.6556 21.3463C66.1567 20.7499 65.4826 20.4594 64.6322 20.4594C63.8844 20.4288 63.1513 20.7652 62.6677 21.3616C62.1693 21.9579 61.9199 22.9518 61.9199 24.3433Z" fill="white"/>
<path d="M71.0387 17.4929H75.085V27.799H81.4036V31.1631H71.0239V17.4929H71.0387Z" fill="white"/>
<path d="M66.5793 16.7039C70.653 13.502 71.9091 8.07422 69.3847 4.58065C66.8609 1.08706 61.5121 0.85063 57.4385 4.05257C53.3648 7.25449 52.1087 12.6823 54.633 16.1759C57.1569 19.6695 62.5057 19.9059 66.5793 16.7039Z" fill="white" stroke="#D2D3D5" stroke-width="2" stroke-miterlimit="10"/>
<path d="M57.8889 9.37354L59.355 8.30317L61.1579 10.9791C61.4658 11.4072 61.7005 11.866 61.8762 12.3706C61.9789 12.7529 61.9494 13.1657 61.8031 13.5327C61.6126 13.9914 61.3047 14.3737 60.8943 14.649C60.4101 15.0006 59.9997 15.1994 59.6481 15.2606C59.3108 15.3217 58.9587 15.2606 58.6362 15.1077C58.2846 14.9242 57.9768 14.6642 57.7421 14.3278L59.0029 13.1046C59.1056 13.2728 59.2376 13.4256 59.3839 13.548C59.4866 13.6245 59.6039 13.6703 59.736 13.6703C59.8386 13.6703 59.9412 13.6245 60.0144 13.5633C60.1612 13.4715 60.2638 13.288 60.2491 13.1046C60.2049 12.8446 60.1023 12.5847 59.9412 12.3859L57.8889 9.37354ZM62.2867 11.0708L63.6207 9.96989C63.7676 10.1534 63.9581 10.291 64.1633 10.3675C64.4564 10.4592 64.7643 10.398 65.0137 10.1993C65.1895 10.077 65.3363 9.9087 65.3947 9.69463C65.4826 9.41942 65.3363 9.11359 65.0721 9.02184C65.0284 9.00658 64.9842 8.99127 64.94 8.99127C64.7643 8.97596 64.4564 9.05246 64.0023 9.25122C63.2545 9.57231 62.6677 9.69463 62.2283 9.64881C61.8031 9.60293 61.4074 9.37354 61.1727 8.99127C60.9969 8.73132 60.9085 8.42549 60.8943 8.11967C60.8943 7.76802 60.9822 7.41631 61.1727 7.12579C61.451 6.7129 61.7884 6.3612 62.1988 6.08599C62.8145 5.64253 63.3571 5.42847 63.826 5.42847C64.2954 5.42847 64.7348 5.65784 65.1453 6.13187L63.826 7.21749C63.5623 6.86584 63.064 6.78934 62.7267 7.06461L62.6824 7.11048C62.5362 7.20224 62.4335 7.33987 62.3746 7.50806C62.3309 7.63039 62.3599 7.76802 62.4335 7.87503C62.4919 7.95147 62.5798 8.01266 62.6824 8.01266C62.7998 8.02791 63.005 7.96678 63.2982 7.82915C64.0312 7.50806 64.5885 7.32456 64.9695 7.26337C65.2921 7.20224 65.6294 7.2328 65.9373 7.37043C66.2157 7.49275 66.4504 7.70683 66.6114 7.96678C66.8166 8.27261 66.934 8.63957 66.9487 9.02184C66.9634 9.41942 66.8608 9.80169 66.6556 10.1381C66.3914 10.5509 66.0546 10.9026 65.6589 11.1779C64.8522 11.7589 64.1928 12.0036 63.6649 11.9119C63.0929 11.8201 62.624 11.5143 62.2867 11.0708Z" fill="white"/>
</svg>
