<svg width="80" height="32" viewBox="0 0 80 32" fill="none" xmlns="http://www.w3.org/2000/svg">
<mask id="mask0_1_408" style="mask-type:luminance" maskUnits="userSpaceOnUse" x="0" y="0" width="80" height="32">
<path d="M80 0H0V31.3924H80V0Z" fill="white"/>
</mask>
<g mask="url(#mask0_1_408)">
<path d="M41.3024 10.3978L45.1085 10.1379C45.1954 10.7954 45.3545 11.2847 45.6151 11.6364C46.0348 12.1869 46.6136 12.4621 47.3806 12.4621C47.945 12.4621 48.3936 12.3245 48.6976 12.0339C48.987 11.8046 49.1606 11.4376 49.1606 11.0553C49.1606 10.6884 49.0015 10.3367 48.7265 10.1073C48.437 9.83207 47.7569 9.55681 46.686 9.31217C44.9349 8.89928 43.6758 8.34881 42.9378 7.64545C42.1997 6.98792 41.7801 6.02462 41.809 5.0001C41.809 4.29672 42.0116 3.59333 42.3878 3.01227C42.822 2.35476 43.4153 1.83487 44.1245 1.54434C44.8915 1.19265 45.9624 1.00916 47.3083 1.00916C48.958 1.00916 50.2171 1.33027 51.0854 1.98778C51.9538 2.63 52.4748 3.66979 52.6338 5.09185L48.8712 5.32121C48.7699 4.70957 48.5673 4.26613 48.2344 3.97561C47.9016 3.68508 47.4674 3.54746 46.9031 3.54746C46.4399 3.54746 46.0926 3.65449 45.8611 3.85328C45.644 4.03677 45.4993 4.31201 45.5138 4.61783C45.5138 4.84719 45.6295 5.06127 45.8032 5.19888C45.9913 5.38238 46.4399 5.55059 47.149 5.70348C48.9002 6.10106 50.1447 6.49864 50.9117 6.91148C51.6787 7.32432 52.2286 7.82896 52.5616 8.42531C52.9086 9.03691 53.0826 9.74032 53.0681 10.459C53.0681 11.3153 52.8364 12.1716 52.3735 12.8902C51.8958 13.6395 51.2301 14.2206 50.4486 14.5723C49.6237 14.9545 48.5818 15.1533 47.3372 15.1533C45.1375 15.1533 43.6179 14.7099 42.7641 13.8077C41.9103 12.9056 41.4037 11.774 41.3024 10.3978ZM0.911725 14.924V1.25381H7.58322C8.8133 1.25381 9.76847 1.36085 10.4197 1.59021C11.0564 1.80429 11.6208 2.24772 11.9971 2.84407C12.4168 3.50159 12.6194 4.26613 12.6049 5.06127C12.6483 6.40689 11.9971 7.69133 10.8828 8.36412C10.4486 8.62407 9.97107 8.80758 9.47901 8.89928C9.84083 9.00634 10.2026 9.18985 10.521 9.40393C10.767 9.618 10.9696 9.86264 11.1578 10.1226C11.3748 10.3825 11.563 10.6731 11.7221 10.9789L13.6614 14.9392H9.11725L6.97538 10.7342C6.70042 10.199 6.46888 9.84733 6.25179 9.67913C5.96239 9.46506 5.61506 9.35805 5.26774 9.35805H4.92041V14.9087H0.911725V14.924ZM4.92041 6.78916H6.61361C6.97538 6.75859 7.3227 6.6974 7.67003 6.60565C7.93055 6.55977 8.16208 6.40689 8.3213 6.1775C8.712 5.62703 8.65413 4.84719 8.17657 4.37317C7.91605 4.14381 7.40956 4.02148 6.68597 4.02148H4.92041V6.78916ZM0 26.6369L3.80608 26.3769C3.89291 27.0344 4.0521 27.5237 4.31259 27.8754C4.7178 28.4259 5.31117 28.7164 6.07813 28.7164C6.64255 28.7164 7.09117 28.5788 7.39507 28.2883C7.68452 28.0436 7.85818 27.6919 7.85818 27.3097C7.85818 26.9427 7.69896 26.591 7.424 26.3616C7.1346 26.0864 6.45439 25.8111 5.36904 25.5665C3.61794 25.1536 2.3589 24.6031 1.62084 23.8998C0.882779 23.2422 0.463097 22.2789 0.492041 21.2544C0.492041 20.551 0.694644 19.8476 1.07091 19.2666C1.50506 18.6091 2.09841 18.0892 2.80753 17.7986C3.57453 17.447 4.64544 17.2635 5.99132 17.2635C7.64109 17.2635 8.90016 17.5846 9.76847 18.2421C10.6368 18.8996 11.1433 19.9241 11.3024 21.3461L7.53979 21.5755C7.43849 20.9639 7.2359 20.5205 6.90306 20.23C6.58468 19.9394 6.13605 19.8018 5.57164 19.8171C5.10854 19.8171 4.76122 19.9241 4.52967 20.1382C4.29812 20.3217 4.16787 20.5969 4.18234 20.9027C4.18234 21.1321 4.29812 21.3461 4.47178 21.4838C4.65991 21.6673 5.10854 21.8355 5.81766 21.9884C7.56873 22.386 8.8133 22.7835 9.58031 23.1964C10.3473 23.6093 10.8972 24.1139 11.2301 24.7102C11.5774 25.3218 11.7511 26.0252 11.7511 26.7286C11.7511 27.5849 11.5051 28.4259 11.0564 29.1446C10.5789 29.8939 9.9132 30.4749 9.13169 30.8266C8.30681 31.2089 7.26483 31.4076 6.02026 31.4076C3.82055 31.4076 2.30101 30.9642 1.44718 30.0621C0.593345 29.1446 0.115774 28.0131 0 26.6369Z" fill="#D2D3D5"/>
<path d="M19.2476 25.5665L22.7498 26.6828C22.5616 27.6155 22.1709 28.5024 21.6355 29.2822C21.1434 29.9703 20.4922 30.5055 19.7541 30.8572C19.0016 31.2089 18.0464 31.3924 16.8887 31.3924C15.4849 31.3924 14.3272 31.1783 13.4444 30.7502C12.5471 30.322 11.7802 29.5575 11.1289 28.4718C10.4777 27.3862 10.1593 25.9947 10.1593 24.2974C10.1593 22.0343 10.7237 20.2911 11.867 19.0831C13.0103 17.8751 14.6167 17.2635 16.7005 17.2635C18.3359 17.2635 19.6094 17.6152 20.5501 18.3033C21.4762 19.0066 22.1709 20.077 22.634 21.5144L19.1029 22.3401C19.016 22.019 18.8858 21.6979 18.7121 21.4227C18.4951 21.1016 18.2201 20.8569 17.8872 20.6734C17.5544 20.4899 17.1782 20.4135 16.8018 20.4135C15.8902 20.4135 15.1955 20.7957 14.718 21.5755C14.3561 22.1413 14.168 23.0435 14.168 24.2667C14.168 25.7806 14.3851 26.8204 14.8192 27.3862C15.2534 27.9519 15.8612 28.2271 16.6572 28.2271C17.4241 28.2271 18.003 27.9978 18.3937 27.5544C18.7845 27.0803 19.074 26.4228 19.2476 25.5665ZM27.4241 17.4929H31.4184V22.2789H35.7889V17.4929H39.812V31.163H35.7889V25.6277H31.4184V31.163H27.4241V17.4929Z" fill="#D2D3D5"/>
<path d="M39.2618 24.328C39.2618 22.0955 39.8552 20.3523 41.0274 19.1138C42.1996 17.8751 43.8494 17.2482 45.9478 17.2482C48.1041 17.2482 49.7539 17.8599 50.9261 19.0831C52.0982 20.3065 52.6774 22.019 52.6774 24.2209C52.6774 25.8265 52.4166 27.1262 51.9102 28.1507C51.4182 29.1599 50.6511 29.9856 49.7105 30.5361C48.7409 31.1019 47.5397 31.3924 46.107 31.3924C44.6453 31.3924 43.4442 31.1477 42.4891 30.6585C41.505 30.1386 40.6946 29.3281 40.1591 28.3342C39.5657 27.2638 39.2618 25.9335 39.2618 24.328ZM43.2561 24.3432C43.2561 25.7194 43.502 26.7134 43.9797 27.325C44.4572 27.9214 45.1229 28.2271 45.9623 28.2271C46.8161 28.2271 47.4818 27.9366 47.9594 27.3403C48.437 26.7439 48.6685 25.6889 48.6685 24.1598C48.6685 22.8753 48.4225 21.9273 47.9305 21.3462C47.4384 20.7499 46.7727 20.4593 45.9333 20.4593C45.1953 20.4288 44.4862 20.7652 43.9941 21.3615C43.5021 21.9579 43.2561 22.9518 43.2561 24.3432ZM56.7724 24.328C56.7724 22.0955 57.3662 20.3523 58.5382 19.1138C59.7106 17.8751 61.3605 17.2482 63.4587 17.2482C65.615 17.2482 67.2794 17.8599 68.4369 19.0831C69.5948 20.3065 70.188 22.019 70.188 24.2209C70.188 25.8265 69.9278 27.1262 69.4213 28.1507C68.9288 29.1599 68.162 29.9856 67.2213 30.5361C66.2519 31.1019 65.0504 31.3924 63.6176 31.3924C62.1563 31.3924 60.9553 31.1477 60 30.6585C59.0161 30.1386 58.2052 29.3281 57.6701 28.3342C57.0769 27.2638 56.7724 25.9335 56.7724 24.328ZM60.7667 24.3432C60.7667 25.7194 61.013 26.7134 61.4904 27.325C61.9683 27.9214 62.6337 28.2271 63.4732 28.2271C64.3267 28.2271 64.9927 27.9366 65.4701 27.3403C65.948 26.7439 66.1792 25.6889 66.1792 24.1598C66.1792 22.8753 65.9335 21.9273 65.4415 21.3462C64.9491 20.7499 64.2836 20.4593 63.4441 20.4593C62.7059 20.4288 61.9823 20.7652 61.5049 21.3615C61.013 21.9579 60.7667 22.9518 60.7667 24.3432Z" fill="#D2D3D5"/>
<path d="M69.7683 17.4929H73.7626V27.799H80V31.163H69.7538V17.4929H69.7683Z" fill="#D2D3D5"/>
<path d="M65.3662 16.7039C69.3875 13.502 70.6275 8.07422 68.1356 4.58065C65.6442 1.08706 60.3642 0.85063 56.3429 4.05257C52.3216 7.25449 51.0816 12.6823 53.5735 16.1759C56.0649 19.6695 61.3449 19.9059 65.3662 16.7039Z" stroke="#D2D3D5" stroke-width="2" stroke-miterlimit="10"/>
<path d="M56.7875 9.37336L58.2348 8.30299L60.0145 10.9789C60.3184 11.407 60.5501 11.8658 60.7236 12.3704C60.8249 12.7527 60.7958 13.1655 60.6514 13.5325C60.4634 13.9912 60.1595 14.3735 59.7543 14.6488C59.2763 15.0004 58.8711 15.1992 58.5241 15.2604C58.1911 15.3216 57.8436 15.2604 57.5252 15.1075C57.1782 14.924 56.8743 14.664 56.6426 14.3276L57.8873 13.1044C57.9886 13.2726 58.1189 13.4255 58.2634 13.5478C58.3647 13.6243 58.4805 13.6702 58.6109 13.6702C58.7122 13.6702 58.8135 13.6243 58.8857 13.5631C59.0306 13.4713 59.1319 13.2878 59.1174 13.1044C59.0737 12.8444 58.9724 12.5845 58.8135 12.3857L56.7875 9.37336ZM61.1288 11.0706L62.4457 9.96971C62.5906 10.1532 62.7787 10.2908 62.9813 10.3673C63.2706 10.459 63.5745 10.3979 63.8208 10.1991C63.9943 10.0768 64.1392 9.90852 64.1969 9.69445C64.2836 9.41924 64.1392 9.11341 63.8784 9.02166C63.8353 9.0064 63.7917 8.99109 63.748 8.99109C63.5745 8.97578 63.2706 9.05228 62.8223 9.25104C62.0841 9.57212 61.5049 9.69445 61.0711 9.64862C60.6514 9.60275 60.2608 9.37336 60.0291 8.99109C59.8556 8.73114 59.7683 8.42531 59.7543 8.11948C59.7543 7.76783 59.841 7.41613 60.0291 7.12561C60.3039 6.71272 60.6369 6.36101 61.0421 6.08581C61.6498 5.64235 62.1854 5.42828 62.6483 5.42828C63.1117 5.42828 63.5454 5.65766 63.9506 6.13168L62.6483 7.21731C62.388 6.86566 61.8961 6.78916 61.5631 7.06442L61.5195 7.1103C61.375 7.20205 61.2737 7.33968 61.2156 7.50788C61.1724 7.6302 61.201 7.76783 61.2737 7.87484C61.3314 7.95129 61.4182 8.01247 61.5195 8.01247C61.6353 8.02773 61.8379 7.9666 62.1273 7.82897C62.8509 7.50788 63.401 7.32437 63.7771 7.26319C64.0956 7.20205 64.4286 7.23262 64.7324 7.37025C65.0073 7.49257 65.2389 7.70665 65.3979 7.9666C65.6005 8.27242 65.7163 8.63938 65.7309 9.02166C65.7454 9.41924 65.6441 9.80151 65.4415 10.1379C65.1808 10.5507 64.8483 10.9024 64.4576 11.1777C63.6613 11.7587 63.0104 12.0034 62.4893 11.9117C61.9247 11.8199 61.4618 11.5141 61.1288 11.0706Z" fill="#D2D3D5"/>
</g>
</svg>
