<svg width="48" height="50" viewBox="0 0 48 50" fill="none" xmlns="http://www.w3.org/2000/svg">
<path d="M9.4167 37.8223H22.8864C23.8695 41.8786 24.7712 45.6301 25.6649 49.3646C18.8731 51.4308 8.75052 46.4261 3.82732 38.4913C1.02486 33.9663 -0.297979 28.6177 0.0563896 23.2444C0.410758 17.8712 2.42332 12.7616 5.79345 8.67889C9.16359 4.59622 13.7104 1.7596 18.7548 0.592733C23.7991 -0.574133 29.0703 -0.00861342 33.7809 2.20482C43.0017 6.54057 48.9485 16.9819 47.5918 27.0592C46.5373 26.5739 45.4514 26.1664 44.3422 25.8397C42.108 25.3655 39.7846 24.5102 37.6154 24.7981C30.7343 25.6958 23.8532 26.7543 17.1021 28.3294C11.0171 29.7097 9.07549 32.3688 9.4167 37.8223ZM31.5142 17.3884C31.5228 16.3542 31.3358 15.3283 30.964 14.3694C30.5922 13.4105 30.0428 12.5374 29.3473 11.7998C28.6517 11.0622 27.8236 10.4746 26.9102 10.0706C25.9968 9.66659 25.016 9.45408 24.0238 9.44518C23.0316 9.43629 22.0475 9.63118 21.1275 10.0187C20.2076 10.4063 19.3699 10.9789 18.6623 11.704C17.9547 12.429 17.391 13.2922 17.0034 14.2443C16.6158 15.1964 16.412 16.2187 16.4034 17.2529C16.3665 18.3122 16.5405 19.3679 16.9145 20.3536C17.2885 21.3392 17.8544 22.2334 18.5765 22.9797C19.2986 23.726 20.1612 24.3083 21.11 24.6897C22.0587 25.0712 23.073 25.2436 24.0888 25.1961C25.0737 25.2124 26.0517 25.0211 26.9639 24.6336C27.8762 24.2461 28.7039 23.6705 29.3974 22.9413C30.0909 22.2121 30.6359 21.3443 30.9996 20.3901C31.3634 19.4359 31.5384 18.4149 31.5142 17.3884Z" fill="#E535AB"/>
<path d="M47.9972 40.3544C47.8753 45.4353 43.3502 50.0421 38.5245 49.9997C36.0792 49.8763 33.7657 48.8077 32.0353 47.0025C30.305 45.1972 29.2818 42.7848 29.1655 40.2358C29.1655 35.0363 33.9181 30.1586 38.8413 30.3788C43.7645 30.5989 48.1109 35.3412 47.9972 40.3544Z" fill="#E535AB"/>
</svg>
